<svg xmlns="http://www.w3.org/2000/svg" xmlns:xlink="http://www.w3.org/1999/xlink" width="160" zoomAndPan="magnify" viewBox="0 0 120 37.92" height="40" preserveAspectRatio="xMidYMid meet" version="1.0"><defs><g/></defs><g fill="#ffffff" fill-opacity="1"><g transform="translate(15.6559, 20.58158)"><g><path d="M 2.484375 -11.21875 L 11.015625 -11.21875 L 10.09375 -8.25 L 9.78125 -8.25 C 9.882812 -8.6875 9.9375 -9.070312 9.9375 -9.40625 C 9.9375 -9.8125 9.8125 -10.117188 9.5625 -10.328125 C 9.375 -10.472656 8.890625 -10.546875 8.109375 -10.546875 L 7.234375 -10.546875 L 5.015625 -2.828125 C 4.734375 -1.847656 4.59375 -1.25 4.59375 -1.03125 C 4.59375 -0.820312 4.675781 -0.648438 4.84375 -0.515625 C 5.019531 -0.378906 5.332031 -0.3125 5.78125 -0.3125 L 6.171875 -0.3125 L 6.0625 0 L 1.1875 0 L 1.28125 -0.3125 L 1.484375 -0.3125 C 1.921875 -0.3125 2.253906 -0.378906 2.484375 -0.515625 C 2.640625 -0.609375 2.78125 -0.773438 2.90625 -1.015625 C 3.039062 -1.265625 3.222656 -1.785156 3.453125 -2.578125 L 5.78125 -10.546875 L 5.109375 -10.546875 C 4.460938 -10.546875 3.941406 -10.460938 3.546875 -10.296875 C 3.160156 -10.140625 2.84375 -9.898438 2.59375 -9.578125 C 2.351562 -9.265625 2.15625 -8.820312 2 -8.25 L 1.703125 -8.25 Z M 2.484375 -11.21875 "/></g></g></g><g fill="#ffffff" fill-opacity="1"><g transform="translate(22.850899, 20.58158)"><g><path d="M 7.84375 -4.90625 C 7.84375 -4.070312 7.617188 -3.25 7.171875 -2.4375 C 6.734375 -1.625 6.125 -0.976562 5.34375 -0.5 C 4.5625 -0.03125 3.800781 0.203125 3.0625 0.203125 C 2.300781 0.203125 1.679688 -0.0351562 1.203125 -0.515625 C 0.734375 -1.003906 0.5 -1.632812 0.5 -2.40625 C 0.5 -3.21875 0.726562 -4.03125 1.1875 -4.84375 C 1.65625 -5.65625 2.28125 -6.296875 3.0625 -6.765625 C 3.84375 -7.242188 4.597656 -7.484375 5.328125 -7.484375 C 6.054688 -7.484375 6.65625 -7.242188 7.125 -6.765625 C 7.601562 -6.285156 7.84375 -5.664062 7.84375 -4.90625 Z M 6.46875 -5.46875 C 6.46875 -5.976562 6.34375 -6.367188 6.09375 -6.640625 C 5.84375 -6.921875 5.515625 -7.0625 5.109375 -7.0625 C 4.304688 -7.0625 3.5625 -6.476562 2.875 -5.3125 C 2.195312 -4.15625 1.859375 -3.003906 1.859375 -1.859375 C 1.859375 -1.328125 1.988281 -0.921875 2.25 -0.640625 C 2.519531 -0.359375 2.851562 -0.21875 3.25 -0.21875 C 4.03125 -0.21875 4.757812 -0.796875 5.4375 -1.953125 C 6.125 -3.109375 6.46875 -4.28125 6.46875 -5.46875 Z M 6.46875 -5.46875 "/></g></g></g><g fill="#ffffff" fill-opacity="1"><g transform="translate(30.650553, 20.58158)"><g><path d="M 4.40625 -9.546875 L 3.765625 -7.296875 L 5.0625 -7.296875 L 4.921875 -6.765625 L 3.625 -6.765625 L 2.203125 -1.890625 C 2.046875 -1.359375 1.96875 -1.019531 1.96875 -0.875 C 1.96875 -0.78125 1.988281 -0.707031 2.03125 -0.65625 C 2.082031 -0.601562 2.132812 -0.578125 2.1875 -0.578125 C 2.332031 -0.578125 2.515625 -0.675781 2.734375 -0.875 C 2.867188 -0.976562 3.164062 -1.316406 3.625 -1.890625 L 3.90625 -1.6875 C 3.394531 -0.945312 2.910156 -0.421875 2.453125 -0.109375 C 2.148438 0.0976562 1.835938 0.203125 1.515625 0.203125 C 1.273438 0.203125 1.078125 0.128906 0.921875 -0.015625 C 0.773438 -0.171875 0.703125 -0.367188 0.703125 -0.609375 C 0.703125 -0.910156 0.785156 -1.367188 0.953125 -1.984375 L 2.34375 -6.765625 L 1.09375 -6.765625 L 1.171875 -7.09375 C 1.785156 -7.257812 2.289062 -7.503906 2.6875 -7.828125 C 3.09375 -8.160156 3.546875 -8.734375 4.046875 -9.546875 Z M 4.40625 -9.546875 "/></g></g></g><g fill="#ffffff" fill-opacity="1"><g transform="translate(34.683034, 20.58158)"><g><path d="M 7.953125 -7.484375 L 6.34375 -1.875 L 6.15625 -1.125 C 6.144531 -1.050781 6.140625 -0.988281 6.140625 -0.9375 C 6.140625 -0.851562 6.164062 -0.78125 6.21875 -0.71875 C 6.257812 -0.664062 6.3125 -0.640625 6.375 -0.640625 C 6.445312 -0.640625 6.539062 -0.679688 6.65625 -0.765625 C 6.875 -0.929688 7.164062 -1.265625 7.53125 -1.765625 L 7.8125 -1.5625 C 7.425781 -0.988281 7.03125 -0.550781 6.625 -0.25 C 6.226562 0.0507812 5.859375 0.203125 5.515625 0.203125 C 5.273438 0.203125 5.09375 0.140625 4.96875 0.015625 C 4.851562 -0.0976562 4.796875 -0.269531 4.796875 -0.5 C 4.796875 -0.769531 4.859375 -1.125 4.984375 -1.5625 L 5.15625 -2.1875 C 4.4375 -1.238281 3.769531 -0.578125 3.15625 -0.203125 C 2.726562 0.0664062 2.300781 0.203125 1.875 0.203125 C 1.476562 0.203125 1.128906 0.0351562 0.828125 -0.296875 C 0.535156 -0.628906 0.390625 -1.09375 0.390625 -1.6875 C 0.390625 -2.5625 0.65625 -3.484375 1.1875 -4.453125 C 1.71875 -5.429688 2.382812 -6.210938 3.1875 -6.796875 C 3.820312 -7.253906 4.421875 -7.484375 4.984375 -7.484375 C 5.328125 -7.484375 5.609375 -7.394531 5.828125 -7.21875 C 6.054688 -7.050781 6.226562 -6.757812 6.34375 -6.34375 L 6.640625 -7.296875 Z M 5.015625 -7.0625 C 4.660156 -7.0625 4.28125 -6.894531 3.875 -6.5625 C 3.3125 -6.09375 2.8125 -5.394531 2.375 -4.46875 C 1.9375 -3.550781 1.71875 -2.722656 1.71875 -1.984375 C 1.71875 -1.609375 1.8125 -1.3125 2 -1.09375 C 2.1875 -0.875 2.40625 -0.765625 2.65625 -0.765625 C 3.25 -0.765625 3.898438 -1.207031 4.609375 -2.09375 C 5.554688 -3.269531 6.03125 -4.484375 6.03125 -5.734375 C 6.03125 -6.203125 5.9375 -6.539062 5.75 -6.75 C 5.570312 -6.957031 5.328125 -7.0625 5.015625 -7.0625 Z M 5.015625 -7.0625 "/></g></g></g><g fill="#ffffff" fill-opacity="1"><g transform="translate(42.482687, 20.58158)"><g><path d="M 5.046875 -11.765625 L 2.203125 -1.921875 C 2.066406 -1.429688 2 -1.128906 2 -1.015625 C 2 -0.929688 2.023438 -0.863281 2.078125 -0.8125 C 2.128906 -0.757812 2.195312 -0.734375 2.28125 -0.734375 C 2.382812 -0.734375 2.492188 -0.78125 2.609375 -0.875 C 2.898438 -1.09375 3.203125 -1.441406 3.515625 -1.921875 L 3.765625 -1.65625 C 3.242188 -0.914062 2.757812 -0.398438 2.3125 -0.109375 C 1.988281 0.0976562 1.679688 0.203125 1.390625 0.203125 C 1.179688 0.203125 1.003906 0.128906 0.859375 -0.015625 C 0.722656 -0.160156 0.65625 -0.328125 0.65625 -0.515625 C 0.65625 -0.710938 0.742188 -1.117188 0.921875 -1.734375 L 3.15625 -9.5 C 3.34375 -10.132812 3.4375 -10.5 3.4375 -10.59375 C 3.4375 -10.726562 3.382812 -10.835938 3.28125 -10.921875 C 3.175781 -11.003906 3.015625 -11.046875 2.796875 -11.046875 C 2.660156 -11.046875 2.460938 -11.03125 2.203125 -11 L 2.203125 -11.296875 Z M 5.046875 -11.765625 "/></g></g></g><g fill="#ffffff" fill-opacity="1"><g transform="translate(46.515169, 20.58158)"><g><path d="M 5.046875 -11.765625 L 2.203125 -1.921875 C 2.066406 -1.429688 2 -1.128906 2 -1.015625 C 2 -0.929688 2.023438 -0.863281 2.078125 -0.8125 C 2.128906 -0.757812 2.195312 -0.734375 2.28125 -0.734375 C 2.382812 -0.734375 2.492188 -0.78125 2.609375 -0.875 C 2.898438 -1.09375 3.203125 -1.441406 3.515625 -1.921875 L 3.765625 -1.65625 C 3.242188 -0.914062 2.757812 -0.398438 2.3125 -0.109375 C 1.988281 0.0976562 1.679688 0.203125 1.390625 0.203125 C 1.179688 0.203125 1.003906 0.128906 0.859375 -0.015625 C 0.722656 -0.160156 0.65625 -0.328125 0.65625 -0.515625 C 0.65625 -0.710938 0.742188 -1.117188 0.921875 -1.734375 L 3.15625 -9.5 C 3.34375 -10.132812 3.4375 -10.5 3.4375 -10.59375 C 3.4375 -10.726562 3.382812 -10.835938 3.28125 -10.921875 C 3.175781 -11.003906 3.015625 -11.046875 2.796875 -11.046875 C 2.660156 -11.046875 2.460938 -11.03125 2.203125 -11 L 2.203125 -11.296875 Z M 5.046875 -11.765625 "/></g></g></g><g fill="#ffffff" fill-opacity="1"><g transform="translate(50.54765, 20.58158)"><g><path d="M 2.703125 -7.484375 C 2.890625 -7.171875 3.019531 -6.875 3.09375 -6.59375 C 3.164062 -6.3125 3.238281 -5.765625 3.3125 -4.953125 L 3.671875 -0.875 C 4.003906 -1.269531 4.488281 -1.898438 5.125 -2.765625 C 5.425781 -3.179688 5.800781 -3.753906 6.25 -4.484375 C 6.519531 -4.921875 6.679688 -5.226562 6.734375 -5.40625 C 6.773438 -5.488281 6.796875 -5.578125 6.796875 -5.671875 C 6.796875 -5.734375 6.773438 -5.785156 6.734375 -5.828125 C 6.691406 -5.867188 6.585938 -5.914062 6.421875 -5.96875 C 6.265625 -6.019531 6.128906 -6.113281 6.015625 -6.25 C 5.910156 -6.394531 5.859375 -6.554688 5.859375 -6.734375 C 5.859375 -6.960938 5.925781 -7.144531 6.0625 -7.28125 C 6.195312 -7.414062 6.363281 -7.484375 6.5625 -7.484375 C 6.800781 -7.484375 7.003906 -7.382812 7.171875 -7.1875 C 7.347656 -6.988281 7.4375 -6.710938 7.4375 -6.359375 C 7.4375 -5.921875 7.285156 -5.421875 6.984375 -4.859375 C 6.691406 -4.296875 6.117188 -3.4375 5.265625 -2.28125 C 4.410156 -1.125 3.378906 0.132812 2.171875 1.5 C 1.335938 2.445312 0.71875 3.039062 0.3125 3.28125 C -0.0820312 3.53125 -0.421875 3.65625 -0.703125 3.65625 C -0.878906 3.65625 -1.03125 3.585938 -1.15625 3.453125 C -1.289062 3.328125 -1.359375 3.179688 -1.359375 3.015625 C -1.359375 2.796875 -1.265625 2.597656 -1.078125 2.421875 C -0.898438 2.242188 -0.707031 2.15625 -0.5 2.15625 C -0.394531 2.15625 -0.304688 2.179688 -0.234375 2.234375 C -0.179688 2.265625 -0.128906 2.34375 -0.078125 2.46875 C -0.0234375 2.601562 0.0195312 2.691406 0.0625 2.734375 C 0.0820312 2.753906 0.113281 2.765625 0.15625 2.765625 C 0.1875 2.765625 0.242188 2.738281 0.328125 2.6875 C 0.628906 2.5 0.984375 2.203125 1.390625 1.796875 C 1.921875 1.253906 2.3125 0.8125 2.5625 0.46875 L 2.109375 -4.78125 C 2.023438 -5.644531 1.90625 -6.171875 1.75 -6.359375 C 1.601562 -6.546875 1.347656 -6.640625 0.984375 -6.640625 C 0.867188 -6.640625 0.660156 -6.625 0.359375 -6.59375 L 0.28125 -6.890625 Z M 2.703125 -7.484375 "/></g></g></g><g fill="#ffffff" fill-opacity="1"><g transform="translate(57.983478, 19.633585)"><g><path d="M 1.1875 0 L 1.1875 -10.546875 L 2.984375 -10.546875 L 8.53125 -3.453125 L 8.296875 -3.453125 L 8.296875 -10.546875 L 10.515625 -10.546875 L 10.515625 0 L 8.65625 0 L 3.171875 -7.046875 L 3.390625 -7.046875 L 3.390625 0 Z M 1.1875 0 "/></g></g></g><g fill="#ffffff" fill-opacity="1"><g transform="translate(68.616958, 19.633585)"><g><path d="M 4.578125 0.171875 C 3.765625 0.171875 3.054688 0.0078125 2.453125 -0.3125 C 1.859375 -0.632812 1.398438 -1.085938 1.078125 -1.671875 C 0.753906 -2.253906 0.59375 -2.929688 0.59375 -3.703125 C 0.59375 -4.492188 0.753906 -5.175781 1.078125 -5.75 C 1.398438 -6.332031 1.859375 -6.78125 2.453125 -7.09375 C 3.054688 -7.40625 3.765625 -7.5625 4.578125 -7.5625 C 5.378906 -7.5625 6.078125 -7.40625 6.671875 -7.09375 C 7.265625 -6.78125 7.722656 -6.332031 8.046875 -5.75 C 8.378906 -5.175781 8.546875 -4.492188 8.546875 -3.703125 C 8.546875 -2.929688 8.378906 -2.253906 8.046875 -1.671875 C 7.722656 -1.085938 7.265625 -0.632812 6.671875 -0.3125 C 6.078125 0.0078125 5.378906 0.171875 4.578125 0.171875 Z M 4.578125 -1.609375 C 5.085938 -1.609375 5.492188 -1.785156 5.796875 -2.140625 C 6.097656 -2.503906 6.25 -3.03125 6.25 -3.71875 C 6.25 -4.40625 6.097656 -4.921875 5.796875 -5.265625 C 5.492188 -5.609375 5.085938 -5.78125 4.578125 -5.78125 C 4.066406 -5.78125 3.660156 -5.609375 3.359375 -5.265625 C 3.054688 -4.921875 2.90625 -4.40625 2.90625 -3.71875 C 2.90625 -3.03125 3.054688 -2.503906 3.359375 -2.140625 C 3.660156 -1.785156 4.066406 -1.609375 4.578125 -1.609375 Z M 4.578125 -1.609375 "/></g></g></g><g fill="#ffffff" fill-opacity="1"><g transform="translate(76.707776, 19.633585)"><g><path d="M 1 0 L 1 -7.421875 L 3.1875 -7.421875 L 3.1875 -5.984375 L 3.109375 -5.984375 C 3.242188 -6.304688 3.429688 -6.582031 3.671875 -6.8125 C 3.910156 -7.050781 4.195312 -7.234375 4.53125 -7.359375 C 4.863281 -7.492188 5.222656 -7.5625 5.609375 -7.5625 C 6.171875 -7.5625 6.648438 -7.425781 7.046875 -7.15625 C 7.441406 -6.882812 7.71875 -6.484375 7.875 -5.953125 L 7.78125 -5.953125 C 7.976562 -6.429688 8.300781 -6.816406 8.75 -7.109375 C 9.207031 -7.410156 9.738281 -7.5625 10.34375 -7.5625 C 10.914062 -7.5625 11.390625 -7.445312 11.765625 -7.21875 C 12.148438 -6.988281 12.4375 -6.632812 12.625 -6.15625 C 12.820312 -5.6875 12.921875 -5.085938 12.921875 -4.359375 L 12.921875 0 L 10.609375 0 L 10.609375 -4.3125 C 10.609375 -4.800781 10.53125 -5.160156 10.375 -5.390625 C 10.21875 -5.617188 9.941406 -5.734375 9.546875 -5.734375 C 9.253906 -5.734375 9 -5.660156 8.78125 -5.515625 C 8.5625 -5.378906 8.394531 -5.1875 8.28125 -4.9375 C 8.164062 -4.6875 8.109375 -4.378906 8.109375 -4.015625 L 8.109375 0 L 5.796875 0 L 5.796875 -4.3125 C 5.796875 -4.800781 5.710938 -5.160156 5.546875 -5.390625 C 5.390625 -5.617188 5.117188 -5.734375 4.734375 -5.734375 C 4.453125 -5.734375 4.203125 -5.660156 3.984375 -5.515625 C 3.765625 -5.367188 3.59375 -5.171875 3.46875 -4.921875 C 3.351562 -4.671875 3.296875 -4.375 3.296875 -4.03125 L 3.296875 0 Z M 1 0 "/></g></g></g><g fill="#ffffff" fill-opacity="1"><g transform="translate(89.539903, 19.633585)"><g><path d="M 3.546875 0.171875 C 2.992188 0.171875 2.5 0.0625 2.0625 -0.15625 C 1.632812 -0.375 1.296875 -0.660156 1.046875 -1.015625 C 0.796875 -1.378906 0.671875 -1.789062 0.671875 -2.25 C 0.671875 -2.78125 0.816406 -3.207031 1.109375 -3.53125 C 1.410156 -3.851562 1.882812 -4.085938 2.53125 -4.234375 C 3.175781 -4.390625 4.023438 -4.46875 5.078125 -4.46875 L 5.96875 -4.46875 L 5.96875 -3.265625 L 5.140625 -3.265625 C 4.753906 -3.265625 4.421875 -3.242188 4.140625 -3.203125 C 3.859375 -3.171875 3.628906 -3.117188 3.453125 -3.046875 C 3.273438 -2.984375 3.144531 -2.894531 3.0625 -2.78125 C 2.976562 -2.664062 2.9375 -2.519531 2.9375 -2.34375 C 2.9375 -2.050781 3.039062 -1.820312 3.25 -1.65625 C 3.457031 -1.5 3.738281 -1.421875 4.09375 -1.421875 C 4.394531 -1.421875 4.664062 -1.488281 4.90625 -1.625 C 5.144531 -1.757812 5.335938 -1.945312 5.484375 -2.1875 C 5.628906 -2.4375 5.703125 -2.710938 5.703125 -3.015625 L 5.703125 -4.6875 C 5.703125 -5.125 5.582031 -5.429688 5.34375 -5.609375 C 5.113281 -5.785156 4.734375 -5.875 4.203125 -5.875 C 3.816406 -5.875 3.398438 -5.8125 2.953125 -5.6875 C 2.503906 -5.570312 2.046875 -5.390625 1.578125 -5.140625 L 0.984375 -6.6875 C 1.285156 -6.863281 1.628906 -7.019531 2.015625 -7.15625 C 2.398438 -7.289062 2.800781 -7.390625 3.21875 -7.453125 C 3.632812 -7.523438 4.039062 -7.5625 4.4375 -7.5625 C 5.195312 -7.5625 5.832031 -7.445312 6.34375 -7.21875 C 6.863281 -7 7.253906 -6.65625 7.515625 -6.1875 C 7.785156 -5.71875 7.921875 -5.109375 7.921875 -4.359375 L 7.921875 0 L 5.859375 0 L 5.859375 -1.484375 L 5.890625 -1.484375 C 5.796875 -1.148438 5.640625 -0.859375 5.421875 -0.609375 C 5.210938 -0.367188 4.953125 -0.175781 4.640625 -0.03125 C 4.328125 0.101562 3.960938 0.171875 3.546875 0.171875 Z M 3.546875 0.171875 "/></g></g></g><g fill="#ffffff" fill-opacity="1"><g transform="translate(97.331585, 19.633585)"><g><path d="M 3.90625 0.171875 C 3.238281 0.171875 2.65625 0.0078125 2.15625 -0.3125 C 1.65625 -0.632812 1.269531 -1.085938 1 -1.671875 C 0.726562 -2.253906 0.59375 -2.929688 0.59375 -3.703125 C 0.59375 -4.484375 0.726562 -5.160156 1 -5.734375 C 1.269531 -6.316406 1.648438 -6.765625 2.140625 -7.078125 C 2.640625 -7.398438 3.21875 -7.5625 3.875 -7.5625 C 4.457031 -7.5625 4.960938 -7.425781 5.390625 -7.15625 C 5.828125 -6.894531 6.132812 -6.546875 6.3125 -6.109375 L 6.21875 -6.109375 L 6.21875 -10.546875 L 8.546875 -10.546875 L 8.546875 0 L 6.375 0 L 6.375 -1.453125 L 6.4375 -1.453125 C 6.238281 -0.941406 5.914062 -0.539062 5.46875 -0.25 C 5.019531 0.03125 4.5 0.171875 3.90625 0.171875 Z M 4.59375 -1.578125 C 5.113281 -1.578125 5.519531 -1.753906 5.8125 -2.109375 C 6.113281 -2.472656 6.265625 -3.003906 6.265625 -3.703125 C 6.265625 -4.410156 6.113281 -4.9375 5.8125 -5.28125 C 5.519531 -5.632812 5.113281 -5.8125 4.59375 -5.8125 C 4.082031 -5.8125 3.675781 -5.632812 3.375 -5.28125 C 3.070312 -4.9375 2.921875 -4.410156 2.921875 -3.703125 C 2.921875 -3.003906 3.070312 -2.472656 3.375 -2.109375 C 3.675781 -1.753906 4.082031 -1.578125 4.59375 -1.578125 Z M 4.59375 -1.578125 "/></g></g></g></svg>